<?xml version="1.0" encoding="UTF-8" standalone="no"?>
<svg
   xmlns:dc="http://purl.org/dc/elements/1.1/"
   xmlns:cc="http://creativecommons.org/ns#"
   xmlns:rdf="http://www.w3.org/1999/02/22-rdf-syntax-ns#"
   xmlns:svg="http://www.w3.org/2000/svg"
   xmlns="http://www.w3.org/2000/svg"
   xmlns:sodipodi="http://sodipodi.sourceforge.net/DTD/sodipodi-0.dtd"
   xmlns:inkscape="http://www.inkscape.org/namespaces/inkscape"
   width="300"
   height="150"
   viewBox="0 0 79.374999 39.6875"
   version="1.1"
   id="svg8"
   inkscape:version="1.0.2 (1.0.2+r75+1)"
   sodipodi:docname="DS_logo.svg">
  <defs
     id="defs2">
    <clipPath
       clipPathUnits="userSpaceOnUse"
       id="clipPath3038">
      <path
         id="path3040"
         style="fill:#000000;stroke:#000000;stroke-width:0.329311;stroke-linecap:round;stroke-linejoin:bevel;stroke-opacity:1;paint-order:fill markers stroke"
         d="m 7.470118,62.564116 c -0.06954,0.782304 -0.138725,1.507987 -0.1715658,1.750795 l -0.07958,0.590146 14.5536338,-0.08888 c 8.004692,-0.04892 23.39406,-0.08964 34.198429,-0.09043 l 19.644278,-0.0016 1.745634,-2.160077 z" />
    </clipPath>
  </defs>
  <sodipodi:namedview
     id="base"
     pagecolor="#ffffff"
     bordercolor="#666666"
     borderopacity="1.0"
     inkscape:pageopacity="0.0"
     inkscape:pageshadow="2"
     inkscape:zoom="1.979899"
     inkscape:cx="100.61199"
     inkscape:cy="57.567706"
     inkscape:document-units="mm"
     inkscape:current-layer="layer1"
     inkscape:document-rotation="0"
     showgrid="false"
     units="px"
     inkscape:window-width="1449"
     inkscape:window-height="974"
     inkscape:window-x="0"
     inkscape:window-y="27"
     inkscape:window-maximized="0" />
  <metadata
     id="metadata5">
    <rdf:RDF>
      <cc:Work
         rdf:about="">
        <dc:format>image/svg+xml</dc:format>
        <dc:type
           rdf:resource="http://purl.org/dc/dcmitype/StillImage" />
        <dc:title></dc:title>
      </cc:Work>
    </rdf:RDF>
  </metadata>
  <g
     inkscape:label="Layer 1"
     inkscape:groupmode="layer"
     id="layer1">
    <path
       style="fill:#000000;stroke:#000000;stroke-width:0.329311;stroke-linecap:round;stroke-linejoin:bevel;stroke-opacity:1;paint-order:fill markers stroke"
       d="m 3.7639577,23.044167 c 0.0439,-0.32458 0.152043,-1.462111 0.240327,-2.52785 l 0.160516,-1.937702 -0.6200251,-2.686437 c -0.341013,-1.477539 -0.620024,-2.785488 -0.620024,-2.906556 0,-0.250963 0.716725,-0.256982 28.6646564,-0.240731 8.378901,0.0049 16.888094,-0.03837 18.90932,-0.09609 2.172542,-0.06204 -6.910223,-0.100613 -22.216781,-0.09435 -14.240457,0.0058 -25.8917384,-0.03829 -25.8917374,-0.09804 3e-6,-0.130524 55.8136144,-0.02077 56.6277344,0.111356 l 0.567947,0.09217 -0.0013,-0.782436 c -7.94e-4,-0.430342 -0.06019,-1.449348 -0.132348,-2.2644609 -0.121123,-1.368819 -0.182689,-1.592132 -0.805947,-2.923487 -0.371142,-0.792805 -0.657365,-1.456589 -0.636053,-1.475075 0.06579,-0.05707 5.033817,-0.130996 6.564268,-0.09767 l 1.447395,0.03151 -0.61218,1.123058 c -0.336698,0.617681 -0.612177,1.158902 -0.612177,1.202711 0,0.104381 1.987534,0.103101 2.511129,-0.0016 0.364992,-0.073 0.468148,-0.2193 1.012925,-1.436574 l 0.606547,-1.355297 h 1.105429 1.105429 l 0.104452,0.668174 c 0.05745,0.367496 0.169514,1.074089 0.249031,1.570207 l 0.144579,0.902036 h 0.781847 c 0.478729,0 0.823764,0.06476 0.88996,0.167042 0.05946,0.09187 0.259739,1.159283 0.445061,2.3720189 l 0.336947,2.204974 2.202114,0.03631 2.202114,0.03631 -0.06844,1.390261 c -0.06841,1.38965 -0.06871,1.390656 -0.681003,2.281164 -0.336907,0.489995 -1.749367,2.297903 -3.138795,4.017571 l -2.526231,3.126671 -19.644312,0.0016 c -10.804369,7.94e-4 -26.193603,0.04157 -34.198296,0.09049 l -14.5539884,0.08895 0.07981,-0.590148 z"
       id="path837" />
    <path
       style="fill:#000000;stroke:#000000;stroke-width:0.329311;stroke-linecap:round;stroke-linejoin:bevel;stroke-opacity:1;paint-order:fill markers stroke"
       d=""
       id="path839" />
    <path
       style="fill:#000000;stroke:#000000;stroke-width:0.329311;stroke-linecap:round;stroke-linejoin:bevel;stroke-opacity:1;paint-order:fill markers stroke"
       d=""
       id="path841" />
    <path
       style="fill:#000000;stroke:#000000;stroke-width:0.329311;stroke-linecap:round;stroke-linejoin:bevel;stroke-opacity:1;paint-order:fill markers stroke"
       d=""
       id="path843" />
    <path
       style="fill:#000000;stroke:#000000;stroke-width:0.329311;stroke-linecap:round;stroke-linejoin:bevel;stroke-opacity:1;paint-order:fill markers stroke"
       d=""
       id="path845" />
    <path
       style="fill:#000000;stroke:#000000;stroke-width:0.0823275;stroke-linecap:round;stroke-linejoin:bevel;stroke-opacity:1;paint-order:fill markers stroke"
       d=""
       id="path849" />
    <path
       style="fill:#000000;stroke:#000000;stroke-width:0.0823275;stroke-linecap:round;stroke-linejoin:bevel;stroke-opacity:1;paint-order:fill markers stroke"
       d=""
       id="path851" />
    <path
       style="fill:none;stroke:#000000;stroke-width:0.264583px;stroke-linecap:butt;stroke-linejoin:miter;stroke-opacity:1"
       d="m 37.425905,13.497636 -0.06634,-3.421447 -9.985388,-5.1677299 -1.93206,0.294781 0.05902,-2.317577 1.814383,-0.129764 11.348442,5.866058 2.326373,0.514065 0.983043,4.3141839 z"
       id="path865" />
    <path
       style="fill:#000000;stroke:#000000;stroke-width:0.329311;stroke-linecap:round;stroke-linejoin:bevel;stroke-opacity:1;paint-order:fill markers stroke"
       d="m 37.578694,11.343385 -0.03793,-1.4126529 -5.011304,-2.602177 -5.011303,-2.6021752 -0.777423,0.08026 c -0.427583,0.044143 -0.848532,0.107706 -0.935443,0.141252 -0.115283,0.044497 -0.146129,-0.2105668 -0.114054,-0.9430999 l 0.04397,-1.0040929 h 0.800899 c 0.781978,0 0.934061,0.068847 6.43732,2.9141557 4.75882,2.460416 5.801953,2.9501967 6.699565,3.1456206 0.584729,0.1273043 1.085352,0.253672 1.112496,0.2808156 0.02714,0.027141 0.197861,0.701325 0.379367,1.498187 0.181513,0.796861 0.361469,1.554075 0.399902,1.682697 0.06438,0.215453 -0.08825,0.233863 -1.939123,0.233863 h -2.009005 z"
       id="path867" />
    <text
       xml:space="preserve"
       style="font-style:normal;font-weight:normal;font-size:5.64444px;line-height:1.25;font-family:sans-serif;fill:#000000;fill-opacity:1;stroke:none;stroke-width:0.264583"
       x="19.561481"
       y="19.204954"
       id="text973"><tspan
         sodipodi:role="line"
         id="tspan971"
         x="19.561481"
         y="19.204954"
         style="font-size:5.64444px;fill:#ffffff;stroke-width:0.264583">DIGITAL SALVAGE</tspan></text>
    <path
       style="fill:#ff0000;stroke:#ff0000;stroke-width:1.065;stroke-linecap:butt;stroke-linejoin:miter;stroke-miterlimit:4;stroke-dasharray:none;stroke-opacity:1"
       d="M 26.109653,4.7809221 72.556391,28.358762"
       id="path955" />
    <path
       style="fill:none;stroke:#ff0000;stroke-width:1.065;stroke-linecap:butt;stroke-linejoin:miter;stroke-miterlimit:4;stroke-dasharray:none;stroke-opacity:1"
       d="M 26.109653,4.7809221 8.6358841,28.594646"
       id="path957" />
    <rect
       style="fill:#000080;paint-order:fill markers stroke"
       id="rect965"
       width="73.397888"
       height="7.0382962"
       x="3.1231823"
       y="27.835093" />
    <rect
       style="fill:#ff0000;stroke:#ff0000;stroke-width:0.9;stroke-miterlimit:4;stroke-dasharray:none;stroke-opacity:1;paint-order:fill markers stroke"
       id="rect1028"
       width="73.569611"
       height="5.5497537"
       x="5.8834848"
       y="60.72282"
       clip-path="url(#clipPath3038)"
       transform="translate(-3.5346692,-41.270792)" />
    <text
       xml:space="preserve"
       style="font-style:normal;font-weight:normal;font-size:10.5833px;line-height:1.25;font-family:sans-serif;fill:#000000;fill-opacity:1;stroke:none;stroke-width:0.264583"
       x="32.3811"
       y="32.998192"
       id="text3044"><tspan
         sodipodi:role="line"
         id="tspan3042"
         x="32.3811"
         y="32.998192"
         style="stroke-width:0.264583" /></text>
    <text
       xml:space="preserve"
       style="font-style:normal;font-weight:normal;font-size:5.64444px;line-height:1.25;font-family:sans-serif;fill:#ffffff;fill-opacity:1;stroke:none;stroke-width:0.264583"
       x="11.39747"
       y="33.426445"
       id="text3048"><tspan
         sodipodi:role="line"
         id="tspan3046"
         x="11.39747"
         y="33.426445"
         style="font-size:5.64444px;fill:#ffffff;stroke-width:0.264583">0110 0100  0111 0011 </tspan><tspan
         sodipodi:role="line"
         x="11.39747"
         y="40.481995"
         style="font-size:5.64444px;fill:#ffffff;stroke-width:0.264583"
         id="tspan3050" /></text>
  </g>
</svg>
